<?xml version="1.0" standalone="no"?>
<!DOCTYPE svg PUBLIC "-//W3C//DTD SVG 20010904//EN"
 "http://www.w3.org/TR/2001/REC-SVG-20010904/DTD/svg10.dtd">
<svg version="1.0" xmlns="http://www.w3.org/2000/svg"
 width="260.000000pt" height="260.000000pt" viewBox="0 0 260.000000 260.000000"
 preserveAspectRatio="xMidYMid meet">
<metadata>
Created by potrace 1.11, written by Peter Selinger 2001-2013
</metadata>
<g transform="translate(0.000000,260.000000) scale(0.100000,-0.100000)"
fill="#000000" stroke="none">
<path d="M453 1905 l-22 -15 0 -490 c-1 -531 -2 -520 54 -520 52 0 55 12 55
264 l0 232 265 0 265 -1 0 -237 c0 -224 1 -238 19 -248 11 -5 28 -10 39 -10
47 0 47 3 48 514 0 265 -2 487 -4 494 -9 25 -52 34 -78 17 -24 -15 -24 -16
-24 -225 l0 -210 -265 0 -265 0 -1 200 c-1 110 -2 204 -3 210 -4 29 -55 45
-83 25z"/>
<path d="M1448 1912 c-10 -2 -21 -14 -24 -27 -3 -12 -4 -184 -2 -381 4 -342 5
-362 27 -421 55 -151 165 -214 366 -209 200 6 299 82 341 264 15 66 20 738 5
761 -11 17 -67 19 -84 2 -8 -8 -12 -103 -13 -349 -2 -346 -7 -399 -44 -472
-39 -77 -126 -115 -244 -108 -99 7 -158 35 -195 94 -48 74 -53 127 -55 489 -1
182 -4 335 -8 341 -9 13 -45 21 -70 16z"/>
</g>
</svg>
